<?xml version="1.0" encoding="UTF-8"?>
<svg xmlns="http://www.w3.org/2000/svg" xmlns:xlink="http://www.w3.org/1999/xlink" width="512" height="512" viewBox="0 0 60 60" version="1.1"><!-- Generator: Sketch 51.3 (57544) - http://www.bohemiancoding.com/sketch --><title>029 - Exhausted</title><desc>Created with Sketch.</desc><defs/><g id="Page-1" stroke="none" stroke-width="1" fill="none" fill-rule="evenodd"><g id="029---Exhausted" transform="translate(-1.000000, -1.000000)" fill="#000000" fill-rule="nonzero"><path d="M19.709,6.942 C17.6483921,7.47750189 15.7606426,8.53520641 14.228,10.013 C12.8336782,11.5109919 11.756452,13.2753027 11.061,15.2 C10.7612032,16.086623 10.5141052,16.9902005 10.321,17.906 L10.221,18.339 C10.1356254,18.6881834 10.2442362,19.0563226 10.5054777,19.3032451 C10.7667192,19.5501676 11.1403903,19.6378757 11.4842121,19.5329737 C11.8280339,19.4280717 12.0890973,19.1467025 12.168,18.796 L12.268,18.361 C12.4434278,17.5255136 12.6667971,16.7008165 12.937,15.891 C13.5401016,14.2219058 14.4733406,12.6914483 15.681,11.391 C16.9771231,10.1691454 18.5634442,9.29802828 20.29,8.86 C20.6386132,8.76176066 20.9068574,8.48269775 20.9912433,8.13047458 C21.0756292,7.7782514 20.9629648,7.40793017 20.6967164,7.1623819 C20.4304681,6.91683364 20.0522577,6.83444433 19.708,6.947 L19.709,6.942 Z" id="Shape"/><circle id="Oval" cx="10" cy="22" r="1"/><path d="M58,9 L50.308,9 C49.6258489,8.27050332 48.8904958,7.59264143 48.108,6.972 C42.459,2.555 37.175,0.727 31.018,1.031 C27.7640828,1.25668862 24.5310865,1.72059835 21.345,2.419 C16.836,3.319 13.559,4.9 11.322,7.264 C9.55741114,9.15217091 8.19304573,11.3778111 7.311,13.807 C6.95086895,14.8522819 6.65498362,15.9186045 6.425,17 L6.325,17.422 C6.1115707,18.2063052 5.82532664,18.9689531 5.47,19.7 C5.27,20.156 5.062,20.612 4.883,21.084 C4.65284498,21.6094053 4.56192334,22.1852424 4.619,22.756 C4.82021123,23.6521932 5.3374331,24.4459531 6.076,24.992 C6.565,25.44 6.886,25.756 6.89,26.031 C6.85421996,26.1830023 6.79697882,26.3291355 6.72,26.465 C5.52247783,28.986227 4.05560327,31.370443 2.345,33.576 C1.62,34.458 0.86,35.487 1.02,36.517 C1.23211923,37.311598 1.75555427,37.9871609 2.472,38.391 C2.80078202,38.6194083 3.14797678,38.8200989 3.51,38.991 C3.942,39.212 4.667,39.582 4.718,39.841 C4.78085126,40.1828692 4.73974795,40.5357307 4.6,40.854 C4.451,41.174 4.295,41.449 4.16,41.686 C3.794,42.333 3.181,43.417 4.105,44.172 C4.321,44.372 4.694,44.661 5.034,44.922 C4.78370505,45.359639 4.67048978,45.8623148 4.709,46.365 C4.76206133,46.7609003 4.97674391,47.1171358 5.302,47.349 C5.524,47.505 5.761,47.641 5.994,47.774 C6.586,48.11 6.817,48.267 6.894,48.581 C6.94956021,48.9834802 6.91541128,49.3932674 6.794,49.781 C6.735,50.048 6.678,50.316 6.644,50.581 C6.54469822,51.4923539 6.65729272,52.4143284 6.973,53.275 C7.42281456,54.8638526 8.85996076,55.9707558 10.511,56 C10.7865929,55.9991845 11.0613714,55.9700312 11.331,55.913 C14.1877778,55.2358183 17.0028445,54.3934018 19.762,53.39 C22.015,54.712 23.438,58.732 23.809,60.241 C23.9197719,60.6870872 24.3203652,61.0002183 24.78,61 L49.88,60.93 C50.198095,60.9293833 50.4969218,60.7774667 50.6848608,60.5208273 C50.8727998,60.2641879 50.9274293,59.9334437 50.832,59.63 C50.584758,58.9524505 50.2437748,58.3128965 49.819,57.73 C49.5792082,57.3843183 49.3630492,57.0228282 49.172,56.648 C48.7190564,55.7315437 48.3414759,54.7797332 48.043,53.802 C47.4717419,51.8695435 47.0758071,49.8895347 46.86,47.886 C46.5085267,44.8942172 46.9621452,41.8628444 48.174,39.105 C48.9132994,37.5756869 49.8241541,36.1354294 50.889,34.812 C51.489,34.002 52.112,33.163 52.672,32.281 C53.3276628,31.2516379 53.8637935,30.1508589 54.27,29 L58,29 C59.6568542,29 61,27.6568542 61,26 L61,12 C61,10.3431458 59.6568542,9 58,9 Z M50.985,31.214 C50.466,32.035 49.866,32.843 49.285,33.625 C48.1282229,35.0690946 47.1407788,36.6410198 46.342,38.31 C44.9886868,41.3947013 44.4826273,44.7845409 44.876,48.13 C45.1069864,50.2534961 45.5283479,52.3519366 46.135,54.4 C46.4640482,55.4749292 46.879054,56.5216399 47.376,57.53 C47.6041562,57.9828684 47.8630969,58.4195592 48.151,58.837 L48.218,58.937 L25.536,59 C24.8721602,56.6278229 23.6672676,54.4419012 22.016,52.614 L22.916,52.299 C23.586,52.065 24.091,51.889 24.35,51.806 C28.634,50.451 30.776,48.5 30.718,46.006 C30.7049669,45.4631101 30.2610463,45.0298436 29.718,45.03 L29.7,45.03 C29.1480455,45.043101 28.711146,45.5010397 28.724,46.053 C28.748,47.082 27.905,48.583 23.748,49.898 C23.477,49.985 22.955,50.167 22.262,50.409 C21.519,50.669 20.574,50.999 19.532,51.353 L19.525,51.353 C16.7107997,52.3845725 13.8393482,53.2526858 10.925,53.953 C9.99258516,54.1321767 9.08476242,53.5441652 8.867,52.62 C8.65388223,52.0509761 8.57350619,51.4408023 8.632,50.836 C8.658,50.626 8.706,50.418 8.752,50.209 C8.95576498,49.5176489 8.98564963,48.7866772 8.839,48.081 C8.54836782,47.1624818 7.87230663,46.4159671 6.987,46.036 L6.78,45.917 C6.88797779,45.6989963 7.01691908,45.4920204 7.165,45.299 C7.33275906,45.0864363 7.40714209,44.8149259 7.3711438,44.5465408 C7.33514552,44.2781557 7.19184383,44.0358431 6.974,43.875 C6.734,43.699 6.168,43.275 5.754,42.941 C5.802,42.854 5.854,42.758 5.904,42.671 C6.061,42.396 6.24,42.076 6.415,41.706 C6.73144627,41.0050454 6.82465982,40.2237273 6.682,39.468 C6.442,38.248 5.273,37.65 4.421,37.214 C4.13330073,37.0772824 3.85736569,36.9170729 3.596,36.735 C3.38336862,36.5912941 3.18391862,36.42899 3,36.25 C3,36.098 3.163,35.73 3.925,34.803 C5.71607044,32.4972449 7.2517206,30.0039928 8.505,27.367 C8.73934083,26.9538574 8.87135428,26.4906102 8.89,26.016 C8.78670832,25.0108401 8.25404392,24.0993679 7.429,23.516 C7.029,23.145 6.644,22.795 6.599,22.469 C6.60563423,22.2329751 6.65864086,22.0005614 6.755,21.785 C6.918,21.356 7.106,20.936 7.295,20.515 C7.70505054,19.6694994 8.03256792,18.786408 8.273,17.878 L8.373,17.452 C8.58408599,16.4522697 8.85626318,15.4664205 9.188,14.5 C9.97629737,12.324256 11.1967986,10.3305666 12.776,8.639 C14.689,6.615 17.7,5.183 21.74,4.38 C24.8296146,3.70175362 27.9646074,3.24988685 31.12,3.028 C36.78,2.75 41.634,4.449 46.873,8.546 C47.056,8.69 47.225,8.846 47.403,9 L30,9 C28.3431458,9 27,10.3431458 27,12 L27,14 L26,14 C24.3431458,14 23,15.3431458 23,17 L23,21 C23,22.6568542 24.3431458,24 26,24 L27,24 L27,26 C27,27.6568542 28.3431458,29 30,29 L52.13,29 C51.8135527,29.7699434 51.4304288,30.5107611 50.985,31.214 Z M27,22 L26,22 C25.4477153,22 25,21.5522847 25,21 L25,17 C25,16.4477153 25.4477153,16 26,16 L27,16 L27,22 Z M59,26 C59,26.5522847 58.5522847,27 58,27 L30,27 C29.4477153,27 29,26.5522847 29,26 L29,12 C29,11.4477153 29.4477153,11 30,11 L58,11 C58.5522847,11 59,11.4477153 59,12 L59,26 Z" id="Shape"/><path d="M56,13 L32,13 C31.4477153,13 31,13.4477153 31,14 L31,24 C31,24.5522847 31.4477153,25 32,25 L56,25 C56.5522847,25 57,24.5522847 57,24 L57,14 C57,13.4477153 56.5522847,13 56,13 Z M33,23 L33,15 L37,15 L37,23 L33,23 Z M55,23 L51,23 L51,22 C51,21.4477153 50.5522847,21 50,21 C49.4477153,21 49,21.4477153 49,22 L49,23 L45,23 L45,22 C45,21.4477153 44.5522847,21 44,21 C43.4477153,21 43,21.4477153 43,22 L43,23 L39,23 L39,15 L55,15 L55,23 Z" id="Shape"/></g></g></svg>
